<?xml version="1.0" standalone="no"?>
<!DOCTYPE svg PUBLIC "-//W3C//DTD SVG 20010904//EN"
 "http://www.w3.org/TR/2001/REC-SVG-20010904/DTD/svg10.dtd">
<svg version="1.0" xmlns="http://www.w3.org/2000/svg"
 width="16.000000pt" height="16.000000pt" viewBox="0 0 16.000000 16.000000"
 preserveAspectRatio="xMidYMid meet">
<metadata>
Created by potrace 1.11, written by Peter Selinger 2001-2013
</metadata>
<g transform="translate(0.000000,16.000000) scale(0.003119,-0.003119)"
fill="#000000" stroke="none">
<path d="M2457 5124 c-1 -1 -33 -4 -72 -8 -325 -29 -647 -161 -910 -372 -155
-124 -266 -244 -369 -399 -102 -154 -219 -417 -241 -544 -3 -19 -8 -37 -10
-40 -2 -4 -6 -26 -10 -51 -4 -25 -8 -47 -10 -50 -9 -16 -19 -165 -19 -295 0
-135 4 -196 19 -290 3 -16 7 -41 9 -55 27 -166 114 -383 250 -620 172 -298
225 -446 252 -702 4 -34 15 -86 25 -115 13 -40 15 -60 8 -85 -29 -99 -27 -233
5 -324 11 -33 10 -46 -6 -98 -36 -115 -22 -256 36 -376 35 -74 150 -197 205
-220 27 -11 39 -27 66 -84 38 -82 107 -178 160 -221 21 -16 46 -37 56 -46 34
-29 163 -89 229 -106 97 -25 774 -25 868 1 210 57 382 204 457 393 13 33 28
49 69 71 100 57 192 180 230 307 21 68 20 220 -1 285 -17 49 -17 61 -6 100 29
98 32 202 9 289 -12 47 -12 60 1 95 18 51 21 67 28 136 22 231 72 383 201 612
99 175 113 200 160 298 37 77 109 269 118 315 2 6 8 35 14 65 28 133 36 219
36 375 0 112 -10 272 -19 298 -3 7 -6 23 -9 37 -72 409 -325 815 -670 1074
-250 188 -553 308 -861 342 -53 6 -292 13 -298 8z m293 -488 c64 -12 90 -18
157 -37 461 -128 812 -508 908 -984 24 -119 25 -375 2 -493 -32 -158 -94 -309
-210 -511 -69 -120 -141 -264 -175 -351 -57 -146 -101 -324 -118 -480 -10 -95
61 -87 -752 -85 -394 1 -720 2 -723 3 -13 4 -28 58 -34 122 -3 36 -11 85 -16
110 -6 25 -13 59 -16 75 -10 60 -84 269 -127 362 -25 52 -79 154 -120 226
-192 343 -237 486 -237 767 0 159 10 229 57 386 82 276 281 541 527 697 224
143 457 208 722 201 72 -2 141 -6 155 -8z m529 -3265 c24 -24 18 -56 -14 -77
-19 -12 -121 -14 -710 -13 -654 2 -689 3 -707 21 -22 22 -23 37 -2 66 l15 22
700 0 c677 0 700 -1 718 -19z m1 -408 c19 -24 17 -55 -5 -73 -9 -8 -228 -11
-711 -11 -681 0 -697 0 -717 19 -24 24 -17 69 13 80 10 4 330 7 710 7 l692 0
18 -22z m-280 -391 c-1 -12 -34 -47 -70 -72 l-35 -25 -310 -3 c-205 -2 -323 0
-347 8 -37 10 -108 68 -108 87 0 6 162 10 435 11 239 0 435 -2 435 -6z"/>
</g>
</svg>
